<svg width="226" height="351" viewBox="0 0 226 351" fill="none" xmlns="http://www.w3.org/2000/svg">
<path d="M0.0535889 97.5001L33.0536 125.5V293.5L0.0535889 268.563V97.5001Z" fill="#FF4B4B"/>
<path d="M68.0532 5.00012L103.44 39.1162L101.276 350.8L68.0534 323.181L68.0532 5.00012Z" fill="#FF4B4B"/>
<path d="M135.121 122.224L167.494 98.2236L166.5 261.5L135.121 283.724L135.121 122.224Z" fill="#FF4B4B"/>
<path d="M0.0536135 268L31.4572 249.14L101.054 305.5L69.0072 323.95L0.0536135 268Z" fill="#FF4B4B"/>
<path d="M225 129.478L192 101V307L225 281.605V129.478Z" fill="#FF4B4B"/>
<path d="M225.245 281.5L195.778 261.624L133.745 307.5L133.745 351L225.245 281.5Z" fill="#FF4B4B"/>
<path d="M68.5195 45.8347L68.5195 1.83465L166 79L134 103L68.5195 45.8347Z" fill="#FF4B4B"/>
</svg>
