<svg width="229" height="346" viewBox="0 0 229 346" fill="none" xmlns="http://www.w3.org/2000/svg">
<path d="M0.0535889 92.5L33.0536 120.5V288.5L0.0535889 263.562V92.5Z" fill="#FF4B4B"/>
<path d="M68.0532 0L103.44 34.1161L101.276 345.799L68.0534 318.181L68.0532 0Z" fill="#FF4B4B"/>
<path d="M134.761 97.785L167.054 79.9766L167.054 245.001L134.761 267.001L134.761 97.785Z" fill="#FF4B4B"/>
<path d="M0.0536135 263L31.4572 244.139L101.054 300.5L69.0072 318.949L0.0536135 263Z" fill="#FF4B4B"/>
<path d="M228.054 123.978L195.054 95.5V301.5L228.054 276.106V123.978Z" fill="#FF4B4B"/>
<path d="M228.299 276L198.831 256.124L136.799 302L136.799 345.5L228.299 276Z" fill="#FF4B4B"/>
<path d="M68.1078 44.4697L68.1078 0.469656L167.054 79.9696L134.907 97.9698L68.1078 44.4697Z" fill="#FF4B4B"/>
</svg>
